{
  "asset": {
    "generator": "UnityGLTF",
    "version": "2.0"
  },
  "extensionsUsed": [
    "KHR_texture_transform"
  ],
  "scene": 0,
  "scenes": [
    {
      "nodes": [
        0,
        2,
        3,
        4,
        5
      ],
      "name": "firetruck"
    }
  ],
  "accessors": [
    {
      "bufferView": 0,
      "componentType": 5126,
      "count": 1396,
      "type": "VEC3",
      "max": [
        0.75,
        1.5,
        1.5499999523162842
      ],
      "min": [
        -0.75,
        0,
        -1.7000001668930054
      ],
      "byteOffset": 0
    },
    {
      "bufferView": 1,
      "componentType": 5126,
      "count": 1396,
      "type": "VEC3",
      "max": [
        1,
        1,
        1
      ],
      "min": [
        -1,
        -1,
        -1
      ],
      "byteOffset": 0
    },
    {
      "bufferView": 2,
      "componentType": 5126,
      "count": 1396,
      "type": "VEC4",
      "max": [
        1,
        0.7071068286895752,
        1,
        1
      ],
      "min": [
        -1,
        -0.7071068286895752,
        -1,
        1
      ],
      "byteOffset": 0
    },
    {
      "bufferView": 3,
      "componentType": 5126,
      "count": 1396,
      "type": "VEC2",
      "max": [
        0.84375,
        0.9750000238418579
      ],
      "min": [
        0.09375,
        0.2749999761581421
      ],
      "byteOffset": 0
    },
    {
      "bufferView": 4,
      "componentType": 5123,
      "count": 2685,
      "type": "SCALAR",
      "max": [
        1395
      ],
      "min": [
        0
      ],
      "byteOffset": 0
    },
    {
      "bufferView": 5,
      "componentType": 5126,
      "count": 254,
      "type": "VEC3",
      "max": [
        0.6000000238418579,
        0.4257720708847046,
        0.0999998077750206
      ],
      "min": [
        -0.6000000238418579,
        9.02389263509778e-17,
        -0.15000000596046448
      ],
      "byteOffset": 0
    },
    {
      "bufferView": 6,
      "componentType": 5126,
      "count": 254,
      "type": "VEC3",
      "max": [
        1,
        1,
        1
      ],
      "min": [
        -1,
        -1,
        -1
      ],
      "byteOffset": 0
    },
    {
      "bufferView": 7,
      "componentType": 5126,
      "count": 254,
      "type": "VEC4",
      "max": [
        1,
        0.3826834559440613,
        1,
        1
      ],
      "min": [
        -1,
        -0.3826834559440613,
        -1,
        1
      ],
      "byteOffset": 0
    },
    {
      "bufferView": 8,
      "componentType": 5126,
      "count": 254,
      "type": "VEC2",
      "max": [
        0.84375,
        0.8689469695091248
      ],
      "min": [
        0.46875,
        0.5249999761581421
      ],
      "byteOffset": 0
    },
    {
      "bufferView": 9,
      "componentType": 5121,
      "count": 480,
      "type": "SCALAR",
      "max": [
        253
      ],
      "min": [
        0
      ],
      "byteOffset": 0
    },
    {
      "bufferView": 10,
      "componentType": 5126,
      "count": 672,
      "type": "VEC3",
      "max": [
        1.4007756543241157e-14,
        0.30000001192092896,
        0.30000001192092896
      ],
      "min": [
        -0.3000001013278961,
        -0.30000001192092896,
        -0.30000001192092896
      ],
      "byteOffset": 0
    },
    {
      "bufferView": 11,
      "componentType": 5126,
      "count": 672,
      "type": "VEC3",
      "max": [
        1,
        1,
        1
      ],
      "min": [
        -1,
        -1,
        -1
      ],
      "byteOffset": 0
    },
    {
      "bufferView": 12,
      "componentType": 5126,
      "count": 672,
      "type": "VEC4",
      "max": [
        1,
        0.11116699129343033,
        1,
        1
      ],
      "min": [
        -1,
        -0.11116699129343033,
        -1,
        1
      ],
      "byteOffset": 0
    },
    {
      "bufferView": 13,
      "componentType": 5126,
      "count": 672,
      "type": "VEC2",
      "max": [
        0.71875,
        0.7250000238418579
      ],
      "min": [
        0.34375,
        0.5249999761581421
      ],
      "byteOffset": 0
    },
    {
      "bufferView": 14,
      "componentType": 5123,
      "count": 1284,
      "type": "SCALAR",
      "max": [
        671
      ],
      "min": [
        0
      ],
      "byteOffset": 0
    },
    {
      "bufferView": 15,
      "componentType": 5126,
      "count": 672,
      "type": "VEC3",
      "max": [
        0.3000001013278961,
        0.30000001192092896,
        0.30000001192092896
      ],
      "min": [
        -6.569393737766022e-14,
        -0.30000001192092896,
        -0.30000001192092896
      ],
      "byteOffset": 0
    },
    {
      "bufferView": 16,
      "componentType": 5126,
      "count": 672,
      "type": "VEC3",
      "max": [
        1,
        1,
        1
      ],
      "min": [
        -1,
        -1,
        -1
      ],
      "byteOffset": 0
    },
    {
      "bufferView": 17,
      "componentType": 5126,
      "count": 672,
      "type": "VEC4",
      "max": [
        1,
        0.11116699129343033,
        1,
        1
      ],
      "min": [
        -1,
        -0.11116699129343033,
        -1,
        1
      ],
      "byteOffset": 0
    },
    {
      "bufferView": 18,
      "componentType": 5126,
      "count": 672,
      "type": "VEC2",
      "max": [
        0.71875,
        0.7250000238418579
      ],
      "min": [
        0.34375,
        0.5249999761581421
      ],
      "byteOffset": 0
    },
    {
      "bufferView": 19,
      "componentType": 5123,
      "count": 1284,
      "type": "SCALAR",
      "max": [
        671
      ],
      "min": [
        0
      ],
      "byteOffset": 0
    },
    {
      "bufferView": 20,
      "componentType": 5126,
      "count": 672,
      "type": "VEC3",
      "max": [
        1.4007756543241157e-14,
        0.30000001192092896,
        0.30000001192092896
      ],
      "min": [
        -0.3000001013278961,
        -0.30000001192092896,
        -0.30000001192092896
      ],
      "byteOffset": 0
    },
    {
      "bufferView": 21,
      "componentType": 5126,
      "count": 672,
      "type": "VEC3",
      "max": [
        1,
        1,
        1
      ],
      "min": [
        -1,
        -1,
        -1
      ],
      "byteOffset": 0
    },
    {
      "bufferView": 22,
      "componentType": 5126,
      "count": 672,
      "type": "VEC4",
      "max": [
        1,
        0.11116699129343033,
        1,
        1
      ],
      "min": [
        -1,
        -0.11116699129343033,
        -1,
        1
      ],
      "byteOffset": 0
    },
    {
      "bufferView": 23,
      "componentType": 5126,
      "count": 672,
      "type": "VEC2",
      "max": [
        0.71875,
        0.7250000238418579
      ],
      "min": [
        0.34375,
        0.5249999761581421
      ],
      "byteOffset": 0
    },
    {
      "bufferView": 24,
      "componentType": 5123,
      "count": 1284,
      "type": "SCALAR",
      "max": [
        671
      ],
      "min": [
        0
      ],
      "byteOffset": 0
    },
    {
      "bufferView": 25,
      "componentType": 5126,
      "count": 672,
      "type": "VEC3",
      "max": [
        0.3000001013278961,
        0.30000001192092896,
        0.30000001192092896
      ],
      "min": [
        -6.569393737766022e-14,
        -0.30000001192092896,
        -0.30000001192092896
      ],
      "byteOffset": 0
    },
    {
      "bufferView": 26,
      "componentType": 5126,
      "count": 672,
      "type": "VEC3",
      "max": [
        1,
        1,
        1
      ],
      "min": [
        -1,
        -1,
        -1
      ],
      "byteOffset": 0
    },
    {
      "bufferView": 27,
      "componentType": 5126,
      "count": 672,
      "type": "VEC4",
      "max": [
        1,
        0.11116699129343033,
        1,
        1
      ],
      "min": [
        -1,
        -0.11116699129343033,
        -1,
        1
      ],
      "byteOffset": 0
    },
    {
      "bufferView": 28,
      "componentType": 5126,
      "count": 672,
      "type": "VEC2",
      "max": [
        0.71875,
        0.7250000238418579
      ],
      "min": [
        0.34375,
        0.5249999761581421
      ],
      "byteOffset": 0
    },
    {
      "bufferView": 29,
      "componentType": 5123,
      "count": 1284,
      "type": "SCALAR",
      "max": [
        671
      ],
      "min": [
        0
      ],
      "byteOffset": 0
    }
  ],
  "buffers": [
    {
      "name": "firetruck",
      "byteLength": 236728,
      "uri": "data:application/octet-stream;base64,"
    }
  ],
  "bufferViews": [
    {
      "buffer": 0,
      "byteLength": 16752,
      "byteStride": 12,
      "target": 34962,
      "byteOffset": 0
    },
    {
      "buffer": 0,
      "byteOffset": 16752,
      "byteLength": 16752,
      "byteStride": 12,
      "target": 34962
    },
    {
      "buffer": 0,
      "byteOffset": 33504,
      "byteLength": 22336,
      "target": 34962,
      "byteStride": 16
    },
    {
      "buffer": 0,
      "byteOffset": 55840,
      "byteLength": 11168,
      "target": 34962,
      "byteStride": 8
    },
    {
      "buffer": 0,
      "byteOffset": 67008,
      "byteLength": 5372,
      "target": 34963
    },
    {
      "buffer": 0,
      "byteOffset": 72384,
      "byteLength": 3048,
      "byteStride": 12,
      "target": 34962
    },
    {
      "buffer": 0,
      "byteOffset": 75432,
      "byteLength": 3048,
      "byteStride": 12,
      "target": 34962
    },
    {
      "buffer": 0,
      "byteOffset": 78480,
      "byteLength": 4064,
      "target": 34962,
      "byteStride": 16
    },
    {
      "buffer": 0,
      "byteOffset": 82544,
      "byteLength": 2032,
      "target": 34962,
      "byteStride": 8
    },
    {
      "buffer": 0,
      "byteOffset": 84576,
      "byteLength": 480,
      "target": 34963
    },
    {
      "buffer": 0,
      "byteOffset": 85056,
      "byteLength": 8064,
      "byteStride": 12,
      "target": 34962
    },
    {
      "buffer": 0,
      "byteOffset": 93120,
      "byteLength": 8064,
      "byteStride": 12,
      "target": 34962
    },
    {
      "buffer": 0,
      "byteOffset": 101184,
      "byteLength": 10752,
      "target": 34962,
      "byteStride": 16
    },
    {
      "buffer": 0,
      "byteOffset": 111936,
      "byteLength": 5376,
      "target": 34962,
      "byteStride": 8
    },
    {
      "buffer": 0,
      "byteOffset": 117312,
      "byteLength": 2568,
      "target": 34963
    },
    {
      "buffer": 0,
      "byteOffset": 119880,
      "byteLength": 8064,
      "byteStride": 12,
      "target": 34962
    },
    {
      "buffer": 0,
      "byteOffset": 127944,
      "byteLength": 8064,
      "byteStride": 12,
      "target": 34962
    },
    {
      "buffer": 0,
      "byteOffset": 136008,
      "byteLength": 10752,
      "target": 34962,
      "byteStride": 16
    },
    {
      "buffer": 0,
      "byteOffset": 146760,
      "byteLength": 5376,
      "target": 34962,
      "byteStride": 8
    },
    {
      "buffer": 0,
      "byteOffset": 152136,
      "byteLength": 2568,
      "target": 34963
    },
    {
      "buffer": 0,
      "byteOffset": 154704,
      "byteLength": 8064,
      "byteStride": 12,
      "target": 34962
    },
    {
      "buffer": 0,
      "byteOffset": 162768,
      "byteLength": 8064,
      "byteStride": 12,
      "target": 34962
    },
    {
      "buffer": 0,
      "byteOffset": 170832,
      "byteLength": 10752,
      "target": 34962,
      "byteStride": 16
    },
    {
      "buffer": 0,
      "byteOffset": 181584,
      "byteLength": 5376,
      "target": 34962,
      "byteStride": 8
    },
    {
      "buffer": 0,
      "byteOffset": 186960,
      "byteLength": 2568,
      "target": 34963
    },
    {
      "buffer": 0,
      "byteOffset": 189528,
      "byteLength": 8064,
      "byteStride": 12,
      "target": 34962
    },
    {
      "buffer": 0,
      "byteOffset": 197592,
      "byteLength": 8064,
      "byteStride": 12,
      "target": 34962
    },
    {
      "buffer": 0,
      "byteOffset": 205656,
      "byteLength": 10752,
      "target": 34962,
      "byteStride": 16
    },
    {
      "buffer": 0,
      "byteOffset": 216408,
      "byteLength": 5376,
      "target": 34962,
      "byteStride": 8
    },
    {
      "buffer": 0,
      "byteOffset": 221784,
      "byteLength": 2568,
      "target": 34963
    },
    {
      "buffer": 0,
      "byteOffset": 224352,
      "byteLength": 12371
    }
  ],
  "images": [
    {
      "name": "colormap",
      "bufferView": 30,
      "mimeType": "image/png"
    }
  ],
  "materials": [
    {
      "pbrMetallicRoughness": {
        "baseColorTexture": {
          "index": 0,
          "extensions": {
            "KHR_texture_transform": {
              "texCoord": 0
            }
          },
          "texCoord": 0
        },
        "metallicFactor": 0,
        "baseColorFactor": [
          1,
          1,
          1,
          1
        ],
        "roughnessFactor": 1
      },
      "doubleSided": true,
      "name": "colormap",
      "emissiveFactor": [
        0,
        0,
        0
      ],
      "alphaMode": "OPAQUE"
    }
  ],
  "meshes": [
    {
      "primitives": [
        {
          "attributes": {
            "POSITION": 0,
            "NORMAL": 1,
            "TANGENT": 2,
            "TEXCOORD_0": 3
          },
          "indices": 4,
          "material": 0,
          "mode": 4
        }
      ],
      "name": "body"
    },
    {
      "primitives": [
        {
          "attributes": {
            "POSITION": 5,
            "NORMAL": 6,
            "TANGENT": 7,
            "TEXCOORD_0": 8
          },
          "indices": 9,
          "material": 0,
          "mode": 4
        }
      ],
      "name": "grill"
    },
    {
      "primitives": [
        {
          "attributes": {
            "POSITION": 10,
            "NORMAL": 11,
            "TANGENT": 12,
            "TEXCOORD_0": 13
          },
          "indices": 14,
          "material": 0,
          "mode": 4
        }
      ],
      "name": "wheel-front-right"
    },
    {
      "primitives": [
        {
          "attributes": {
            "POSITION": 15,
            "NORMAL": 16,
            "TANGENT": 17,
            "TEXCOORD_0": 18
          },
          "indices": 19,
          "material": 0,
          "mode": 4
        }
      ],
      "name": "wheel-front-left"
    },
    {
      "primitives": [
        {
          "attributes": {
            "POSITION": 20,
            "NORMAL": 21,
            "TANGENT": 22,
            "TEXCOORD_0": 23
          },
          "indices": 24,
          "material": 0,
          "mode": 4
        }
      ],
      "name": "wheel-back-right"
    },
    {
      "primitives": [
        {
          "attributes": {
            "POSITION": 25,
            "NORMAL": 26,
            "TANGENT": 27,
            "TEXCOORD_0": 28
          },
          "indices": 29,
          "material": 0,
          "mode": 4
        }
      ],
      "name": "wheel-back-left"
    }
  ],
  "nodes": [
    {
      "children": [
        1
      ],
      "mesh": 0,
      "translation": [
        -1.44382282e-15,
        0.2,
        -2.021352e-14
      ],
      "name": "body",
      "rotation": [
        0,
        0,
        0,
        1
      ],
      "scale": [
        1,
        1,
        1
      ]
    },
    {
      "mesh": 1,
      "translation": [
        0,
        0.07422793,
        1.5999999
      ],
      "name": "grill",
      "rotation": [
        0,
        0,
        0,
        1
      ],
      "scale": [
        1,
        1,
        1
      ]
    },
    {
      "mesh": 2,
      "translation": [
        -0.4,
        0.3,
        0.960000038
      ],
      "name": "wheel-front-right",
      "rotation": [
        0,
        0,
        0,
        1
      ],
      "scale": [
        1,
        1,
        1
      ]
    },
    {
      "mesh": 3,
      "translation": [
        0.4,
        0.3,
        0.960000038
      ],
      "name": "wheel-front-left",
      "rotation": [
        0,
        0,
        0,
        1
      ],
      "scale": [
        1,
        1,
        1
      ]
    },
    {
      "mesh": 4,
      "translation": [
        -0.4,
        0.3,
        -0.659999967
      ],
      "name": "wheel-back-right",
      "rotation": [
        0,
        0,
        0,
        1
      ],
      "scale": [
        1,
        1,
        1
      ]
    },
    {
      "mesh": 5,
      "translation": [
        0.4,
        0.3,
        -0.659999967
      ],
      "name": "wheel-back-left",
      "rotation": [
        0,
        0,
        0,
        1
      ],
      "scale": [
        1,
        1,
        1
      ]
    }
  ],
  "samplers": [
    {
      "minFilter": 9987,
      "wrapS": 10497,
      "wrapT": 10497
    }
  ],
  "textures": [
    {
      "sampler": 0,
      "source": 0,
      "name": "colormap"
    }
  ]
}
