{
  "asset": {
    "generator": "UnityGLTF",
    "version": "2.0"
  },
  "extensionsUsed": [
    "KHR_texture_transform"
  ],
  "scene": 0,
  "scenes": [
    {
      "nodes": [
        0,
        1,
        2,
        3,
        4,
        5
      ],
      "name": "garbage-truck"
    }
  ],
  "accessors": [
    {
      "bufferView": 0,
      "componentType": 5126,
      "count": 444,
      "type": "VEC3",
      "max": [
        0.800000011920929,
        0.9069251418113708,
        1.2794829607009888
      ],
      "min": [
        -0.800000011920929,
        -0.10000000149011612,
        -0.10000000149011612
      ],
      "byteOffset": 0
    },
    {
      "bufferView": 1,
      "componentType": 5126,
      "count": 444,
      "type": "VEC3",
      "max": [
        1,
        1,
        1
      ],
      "min": [
        -1,
        -1,
        -1
      ],
      "byteOffset": 0
    },
    {
      "bufferView": 2,
      "componentType": 5126,
      "count": 444,
      "type": "VEC4",
      "max": [
        1,
        0,
        1,
        1
      ],
      "min": [
        -1,
        0,
        -1,
        1
      ],
      "byteOffset": 0
    },
    {
      "bufferView": 3,
      "componentType": 5126,
      "count": 444,
      "type": "VEC2",
      "max": [
        0.46875,
        0.7250000238418579
      ],
      "min": [
        0.46875,
        0.314818799495697
      ],
      "byteOffset": 0
    },
    {
      "bufferView": 4,
      "componentType": 5123,
      "count": 876,
      "type": "SCALAR",
      "max": [
        443
      ],
      "min": [
        0
      ],
      "byteOffset": 0
    },
    {
      "bufferView": 5,
      "componentType": 5126,
      "count": 672,
      "type": "VEC3",
      "max": [
        0.3000001013278961,
        0.30000001192092896,
        0.30000001192092896
      ],
      "min": [
        -6.569393737766022e-14,
        -0.30000001192092896,
        -0.30000001192092896
      ],
      "byteOffset": 0
    },
    {
      "bufferView": 6,
      "componentType": 5126,
      "count": 672,
      "type": "VEC3",
      "max": [
        1,
        1,
        1
      ],
      "min": [
        -1,
        -1,
        -1
      ],
      "byteOffset": 0
    },
    {
      "bufferView": 7,
      "componentType": 5126,
      "count": 672,
      "type": "VEC4",
      "max": [
        1,
        0.11116699129343033,
        1,
        1
      ],
      "min": [
        -1,
        -0.11116699129343033,
        -1,
        1
      ],
      "byteOffset": 0
    },
    {
      "bufferView": 8,
      "componentType": 5126,
      "count": 672,
      "type": "VEC2",
      "max": [
        0.71875,
        0.7250000238418579
      ],
      "min": [
        0.34375,
        0.5249999761581421
      ],
      "byteOffset": 0
    },
    {
      "bufferView": 9,
      "componentType": 5123,
      "count": 1284,
      "type": "SCALAR",
      "max": [
        671
      ],
      "min": [
        0
      ],
      "byteOffset": 0
    },
    {
      "bufferView": 10,
      "componentType": 5126,
      "count": 672,
      "type": "VEC3",
      "max": [
        1.4007756543241157e-14,
        0.30000001192092896,
        0.30000001192092896
      ],
      "min": [
        -0.3000001013278961,
        -0.30000001192092896,
        -0.30000001192092896
      ],
      "byteOffset": 0
    },
    {
      "bufferView": 11,
      "componentType": 5126,
      "count": 672,
      "type": "VEC3",
      "max": [
        1,
        1,
        1
      ],
      "min": [
        -1,
        -1,
        -1
      ],
      "byteOffset": 0
    },
    {
      "bufferView": 12,
      "componentType": 5126,
      "count": 672,
      "type": "VEC4",
      "max": [
        1,
        0.11116699129343033,
        1,
        1
      ],
      "min": [
        -1,
        -0.11116699129343033,
        -1,
        1
      ],
      "byteOffset": 0
    },
    {
      "bufferView": 13,
      "componentType": 5126,
      "count": 672,
      "type": "VEC2",
      "max": [
        0.71875,
        0.7250000238418579
      ],
      "min": [
        0.34375,
        0.5249999761581421
      ],
      "byteOffset": 0
    },
    {
      "bufferView": 14,
      "componentType": 5123,
      "count": 1284,
      "type": "SCALAR",
      "max": [
        671
      ],
      "min": [
        0
      ],
      "byteOffset": 0
    },
    {
      "bufferView": 15,
      "componentType": 5126,
      "count": 672,
      "type": "VEC3",
      "max": [
        1.4007756543241157e-14,
        0.30000001192092896,
        0.30000001192092896
      ],
      "min": [
        -0.3000001013278961,
        -0.30000001192092896,
        -0.30000001192092896
      ],
      "byteOffset": 0
    },
    {
      "bufferView": 16,
      "componentType": 5126,
      "count": 672,
      "type": "VEC3",
      "max": [
        1,
        1,
        1
      ],
      "min": [
        -1,
        -1,
        -1
      ],
      "byteOffset": 0
    },
    {
      "bufferView": 17,
      "componentType": 5126,
      "count": 672,
      "type": "VEC4",
      "max": [
        1,
        0.11116699129343033,
        1,
        1
      ],
      "min": [
        -1,
        -0.11116699129343033,
        -1,
        1
      ],
      "byteOffset": 0
    },
    {
      "bufferView": 18,
      "componentType": 5126,
      "count": 672,
      "type": "VEC2",
      "max": [
        0.71875,
        0.7250000238418579
      ],
      "min": [
        0.34375,
        0.5249999761581421
      ],
      "byteOffset": 0
    },
    {
      "bufferView": 19,
      "componentType": 5123,
      "count": 1284,
      "type": "SCALAR",
      "max": [
        671
      ],
      "min": [
        0
      ],
      "byteOffset": 0
    },
    {
      "bufferView": 20,
      "componentType": 5126,
      "count": 672,
      "type": "VEC3",
      "max": [
        0.3000001013278961,
        0.30000001192092896,
        0.30000001192092896
      ],
      "min": [
        -6.569393737766022e-14,
        -0.30000001192092896,
        -0.30000001192092896
      ],
      "byteOffset": 0
    },
    {
      "bufferView": 21,
      "componentType": 5126,
      "count": 672,
      "type": "VEC3",
      "max": [
        1,
        1,
        1
      ],
      "min": [
        -1,
        -1,
        -1
      ],
      "byteOffset": 0
    },
    {
      "bufferView": 22,
      "componentType": 5126,
      "count": 672,
      "type": "VEC4",
      "max": [
        1,
        0.11116699129343033,
        1,
        1
      ],
      "min": [
        -1,
        -0.11116699129343033,
        -1,
        1
      ],
      "byteOffset": 0
    },
    {
      "bufferView": 23,
      "componentType": 5126,
      "count": 672,
      "type": "VEC2",
      "max": [
        0.71875,
        0.7250000238418579
      ],
      "min": [
        0.34375,
        0.5249999761581421
      ],
      "byteOffset": 0
    },
    {
      "bufferView": 24,
      "componentType": 5123,
      "count": 1284,
      "type": "SCALAR",
      "max": [
        671
      ],
      "min": [
        0
      ],
      "byteOffset": 0
    },
    {
      "bufferView": 25,
      "componentType": 5126,
      "count": 1439,
      "type": "VEC3",
      "max": [
        0.75,
        1.475000023841858,
        1.7249997854232788
      ],
      "min": [
        -0.75,
        0,
        -1.7249999046325684
      ],
      "byteOffset": 0
    },
    {
      "bufferView": 26,
      "componentType": 5126,
      "count": 1439,
      "type": "VEC3",
      "max": [
        1,
        1,
        1
      ],
      "min": [
        -1,
        -1,
        -1
      ],
      "byteOffset": 0
    },
    {
      "bufferView": 27,
      "componentType": 5126,
      "count": 1439,
      "type": "VEC4",
      "max": [
        1,
        0.70710688829422,
        1,
        1
      ],
      "min": [
        -1,
        -0.7071068286895752,
        -1,
        1
      ],
      "byteOffset": 0
    },
    {
      "bufferView": 28,
      "componentType": 5126,
      "count": 1439,
      "type": "VEC2",
      "max": [
        0.84375,
        0.9750000238418579
      ],
      "min": [
        0.09375,
        0.2749999761581421
      ],
      "byteOffset": 0
    },
    {
      "bufferView": 29,
      "componentType": 5123,
      "count": 2688,
      "type": "SCALAR",
      "max": [
        1438
      ],
      "min": [
        0
      ],
      "byteOffset": 0
    },
    {
      "bufferView": 30,
      "componentType": 5126,
      "count": 432,
      "type": "VEC3",
      "max": [
        0.5337986946105957,
        0.20000000298023224,
        0.5144187211990356
      ],
      "min": [
        -0.533798336982727,
        0,
        -0.5144186019897461
      ],
      "byteOffset": 0
    },
    {
      "bufferView": 31,
      "componentType": 5126,
      "count": 432,
      "type": "VEC3",
      "max": [
        0.9314176440238953,
        1,
        0.8066313862800598
      ],
      "min": [
        -0.9314176440238953,
        0.36395207047462463,
        -0.8066313862800598
      ],
      "byteOffset": 0
    },
    {
      "bufferView": 32,
      "componentType": 5126,
      "count": 432,
      "type": "VEC4",
      "max": [
        0.866025447845459,
        0,
        1,
        1
      ],
      "min": [
        -1,
        0,
        -1,
        1
      ],
      "byteOffset": 0
    },
    {
      "bufferView": 33,
      "componentType": 5126,
      "count": 432,
      "type": "VEC2",
      "max": [
        0.46875,
        0.7250000238418579
      ],
      "min": [
        0.46875,
        0.5249999761581421
      ],
      "byteOffset": 0
    },
    {
      "bufferView": 34,
      "componentType": 5123,
      "count": 672,
      "type": "SCALAR",
      "max": [
        431
      ],
      "min": [
        0
      ],
      "byteOffset": 0
    }
  ],
  "buffers": [
    {
      "name": "garbage-truck",
      "byteLength": 271272,
      "uri": "data:application/octet-stream;base64,"
    }
  ],
  "bufferViews": [
    {
      "buffer": 0,
      "byteLength": 5328,
      "byteStride": 12,
      "target": 34962,
      "byteOffset": 0
    },
    {
      "buffer": 0,
      "byteOffset": 5328,
      "byteLength": 5328,
      "byteStride": 12,
      "target": 34962
    },
    {
      "buffer": 0,
      "byteOffset": 10656,
      "byteLength": 7104,
      "target": 34962,
      "byteStride": 16
    },
    {
      "buffer": 0,
      "byteOffset": 17760,
      "byteLength": 3552,
      "target": 34962,
      "byteStride": 8
    },
    {
      "buffer": 0,
      "byteOffset": 21312,
      "byteLength": 1752,
      "target": 34963
    },
    {
      "buffer": 0,
      "byteOffset": 23064,
      "byteLength": 8064,
      "byteStride": 12,
      "target": 34962
    },
    {
      "buffer": 0,
      "byteOffset": 31128,
      "byteLength": 8064,
      "byteStride": 12,
      "target": 34962
    },
    {
      "buffer": 0,
      "byteOffset": 39192,
      "byteLength": 10752,
      "target": 34962,
      "byteStride": 16
    },
    {
      "buffer": 0,
      "byteOffset": 49944,
      "byteLength": 5376,
      "target": 34962,
      "byteStride": 8
    },
    {
      "buffer": 0,
      "byteOffset": 55320,
      "byteLength": 2568,
      "target": 34963
    },
    {
      "buffer": 0,
      "byteOffset": 57888,
      "byteLength": 8064,
      "byteStride": 12,
      "target": 34962
    },
    {
      "buffer": 0,
      "byteOffset": 65952,
      "byteLength": 8064,
      "byteStride": 12,
      "target": 34962
    },
    {
      "buffer": 0,
      "byteOffset": 74016,
      "byteLength": 10752,
      "target": 34962,
      "byteStride": 16
    },
    {
      "buffer": 0,
      "byteOffset": 84768,
      "byteLength": 5376,
      "target": 34962,
      "byteStride": 8
    },
    {
      "buffer": 0,
      "byteOffset": 90144,
      "byteLength": 2568,
      "target": 34963
    },
    {
      "buffer": 0,
      "byteOffset": 92712,
      "byteLength": 8064,
      "byteStride": 12,
      "target": 34962
    },
    {
      "buffer": 0,
      "byteOffset": 100776,
      "byteLength": 8064,
      "byteStride": 12,
      "target": 34962
    },
    {
      "buffer": 0,
      "byteOffset": 108840,
      "byteLength": 10752,
      "target": 34962,
      "byteStride": 16
    },
    {
      "buffer": 0,
      "byteOffset": 119592,
      "byteLength": 5376,
      "target": 34962,
      "byteStride": 8
    },
    {
      "buffer": 0,
      "byteOffset": 124968,
      "byteLength": 2568,
      "target": 34963
    },
    {
      "buffer": 0,
      "byteOffset": 127536,
      "byteLength": 8064,
      "byteStride": 12,
      "target": 34962
    },
    {
      "buffer": 0,
      "byteOffset": 135600,
      "byteLength": 8064,
      "byteStride": 12,
      "target": 34962
    },
    {
      "buffer": 0,
      "byteOffset": 143664,
      "byteLength": 10752,
      "target": 34962,
      "byteStride": 16
    },
    {
      "buffer": 0,
      "byteOffset": 154416,
      "byteLength": 5376,
      "target": 34962,
      "byteStride": 8
    },
    {
      "buffer": 0,
      "byteOffset": 159792,
      "byteLength": 2568,
      "target": 34963
    },
    {
      "buffer": 0,
      "byteOffset": 162360,
      "byteLength": 17268,
      "byteStride": 12,
      "target": 34962
    },
    {
      "buffer": 0,
      "byteOffset": 179632,
      "byteLength": 17268,
      "byteStride": 12,
      "target": 34962
    },
    {
      "buffer": 0,
      "byteOffset": 196904,
      "byteLength": 23024,
      "target": 34962,
      "byteStride": 16
    },
    {
      "buffer": 0,
      "byteOffset": 219928,
      "byteLength": 11512,
      "target": 34962,
      "byteStride": 8
    },
    {
      "buffer": 0,
      "byteOffset": 231440,
      "byteLength": 5376,
      "target": 34963
    },
    {
      "buffer": 0,
      "byteOffset": 236816,
      "byteLength": 5184,
      "byteStride": 12,
      "target": 34962
    },
    {
      "buffer": 0,
      "byteOffset": 242000,
      "byteLength": 5184,
      "byteStride": 12,
      "target": 34962
    },
    {
      "buffer": 0,
      "byteOffset": 247184,
      "byteLength": 6912,
      "target": 34962,
      "byteStride": 16
    },
    {
      "buffer": 0,
      "byteOffset": 254096,
      "byteLength": 3456,
      "target": 34962,
      "byteStride": 8
    },
    {
      "buffer": 0,
      "byteOffset": 257552,
      "byteLength": 1344,
      "target": 34963
    },
    {
      "buffer": 0,
      "byteOffset": 258896,
      "byteLength": 12371
    }
  ],
  "images": [
    {
      "name": "colormap",
      "bufferView": 35,
      "mimeType": "image/png"
    }
  ],
  "materials": [
    {
      "pbrMetallicRoughness": {
        "baseColorTexture": {
          "index": 0,
          "extensions": {
            "KHR_texture_transform": {
              "texCoord": 0
            }
          },
          "texCoord": 0
        },
        "metallicFactor": 0,
        "baseColorFactor": [
          1,
          1,
          1,
          1
        ],
        "roughnessFactor": 1
      },
      "doubleSided": true,
      "name": "colormap",
      "emissiveFactor": [
        0,
        0,
        0
      ],
      "alphaMode": "OPAQUE"
    }
  ],
  "meshes": [
    {
      "primitives": [
        {
          "attributes": {
            "POSITION": 0,
            "NORMAL": 1,
            "TANGENT": 2,
            "TEXCOORD_0": 3
          },
          "indices": 4,
          "material": 0,
          "mode": 4
        }
      ],
      "name": "arm"
    },
    {
      "primitives": [
        {
          "attributes": {
            "POSITION": 5,
            "NORMAL": 6,
            "TANGENT": 7,
            "TEXCOORD_0": 8
          },
          "indices": 9,
          "material": 0,
          "mode": 4
        }
      ],
      "name": "wheel-front-left"
    },
    {
      "primitives": [
        {
          "attributes": {
            "POSITION": 10,
            "NORMAL": 11,
            "TANGENT": 12,
            "TEXCOORD_0": 13
          },
          "indices": 14,
          "material": 0,
          "mode": 4
        }
      ],
      "name": "wheel-front-right"
    },
    {
      "primitives": [
        {
          "attributes": {
            "POSITION": 15,
            "NORMAL": 16,
            "TANGENT": 17,
            "TEXCOORD_0": 18
          },
          "indices": 19,
          "material": 0,
          "mode": 4
        }
      ],
      "name": "wheel-back-right"
    },
    {
      "primitives": [
        {
          "attributes": {
            "POSITION": 20,
            "NORMAL": 21,
            "TANGENT": 22,
            "TEXCOORD_0": 23
          },
          "indices": 24,
          "material": 0,
          "mode": 4
        }
      ],
      "name": "wheel-back-left"
    },
    {
      "primitives": [
        {
          "attributes": {
            "POSITION": 25,
            "NORMAL": 26,
            "TANGENT": 27,
            "TEXCOORD_0": 28
          },
          "indices": 29,
          "material": 0,
          "mode": 4
        }
      ],
      "name": "body"
    },
    {
      "primitives": [
        {
          "attributes": {
            "POSITION": 30,
            "NORMAL": 31,
            "TANGENT": 32,
            "TEXCOORD_0": 33
          },
          "indices": 34,
          "material": 0,
          "mode": 4
        }
      ],
      "name": "trash"
    }
  ],
  "nodes": [
    {
      "mesh": 0,
      "translation": [
        2.88764564e-15,
        0.482139468,
        0.324741185
      ],
      "name": "arm",
      "rotation": [
        0,
        0,
        0,
        1
      ],
      "scale": [
        1,
        1,
        1
      ]
    },
    {
      "mesh": 1,
      "translation": [
        0.3,
        0.3,
        1.11
      ],
      "name": "wheel-front-left",
      "rotation": [
        0,
        0,
        0,
        1
      ],
      "scale": [
        1,
        1,
        1
      ]
    },
    {
      "mesh": 2,
      "translation": [
        -0.3,
        0.3,
        1.11
      ],
      "name": "wheel-front-right",
      "rotation": [
        0,
        0,
        0,
        1
      ],
      "scale": [
        1,
        1,
        1
      ]
    },
    {
      "mesh": 3,
      "translation": [
        -0.3,
        0.3,
        -0.51
      ],
      "name": "wheel-back-right",
      "rotation": [
        0,
        0,
        0,
        1
      ],
      "scale": [
        1,
        1,
        1
      ]
    },
    {
      "mesh": 4,
      "translation": [
        0.3,
        0.3,
        -0.51
      ],
      "name": "wheel-back-left",
      "rotation": [
        0,
        0,
        0,
        1
      ],
      "scale": [
        1,
        1,
        1
      ]
    },
    {
      "children": [
        6
      ],
      "mesh": 5,
      "translation": [
        0,
        0.125,
        0.025
      ],
      "name": "body",
      "rotation": [
        0,
        0,
        0,
        1
      ],
      "scale": [
        1,
        1,
        1
      ]
    },
    {
      "mesh": 6,
      "translation": [
        0.0162014961,
        1.275,
        -0.1331191
      ],
      "name": "trash",
      "rotation": [
        0,
        0,
        0,
        1
      ],
      "scale": [
        1,
        1,
        1
      ]
    }
  ],
  "samplers": [
    {
      "minFilter": 9987,
      "wrapS": 10497,
      "wrapT": 10497
    }
  ],
  "textures": [
    {
      "sampler": 0,
      "source": 0,
      "name": "colormap"
    }
  ]
}
