{
  "asset": {
    "generator": "UnityGLTF",
    "version": "2.0"
  },
  "extensionsUsed": [
    "KHR_texture_transform"
  ],
  "scene": 0,
  "scenes": [
    {
      "nodes": [
        0,
        1,
        2,
        3,
        4
      ],
      "name": "race"
    }
  ],
  "accessors": [
    {
      "bufferView": 0,
      "componentType": 5126,
      "count": 978,
      "type": "VEC3",
      "max": [
        0.6000000238418579,
        0.6325442790985107,
        1.279886245727539
      ],
      "min": [
        -0.6000000238418579,
        0,
        -1.279886245727539
      ],
      "byteOffset": 0
    },
    {
      "bufferView": 1,
      "componentType": 5126,
      "count": 978,
      "type": "VEC3",
      "max": [
        1,
        1,
        1
      ],
      "min": [
        -1,
        -1,
        -1
      ],
      "byteOffset": 0
    },
    {
      "bufferView": 2,
      "componentType": 5126,
      "count": 978,
      "type": "VEC4",
      "max": [
        1,
        0.70710688829422,
        1,
        1
      ],
      "min": [
        -1,
        -0.70710688829422,
        -1,
        1
      ],
      "byteOffset": 0
    },
    {
      "bufferView": 3,
      "componentType": 5126,
      "count": 978,
      "type": "VEC2",
      "max": [
        0.84375,
        0.8521487712860107
      ],
      "min": [
        0.09375,
        0.2749999761581421
      ],
      "byteOffset": 0
    },
    {
      "bufferView": 4,
      "componentType": 5123,
      "count": 1872,
      "type": "SCALAR",
      "max": [
        977
      ],
      "min": [
        0
      ],
      "byteOffset": 0
    },
    {
      "bufferView": 5,
      "componentType": 5126,
      "count": 528,
      "type": "VEC3",
      "max": [
        0.30000001192092896,
        0.30000001192092896,
        0.30000001192092896
      ],
      "min": [
        -2.7342868637661444e-13,
        -0.30000001192092896,
        -0.30000001192092896
      ],
      "byteOffset": 0
    },
    {
      "bufferView": 6,
      "componentType": 5126,
      "count": 528,
      "type": "VEC3",
      "max": [
        1,
        0.9784755706787109,
        0.9784755706787109
      ],
      "min": [
        -1,
        -0.9784755706787109,
        -0.9784755706787109
      ],
      "byteOffset": 0
    },
    {
      "bufferView": 7,
      "componentType": 5126,
      "count": 528,
      "type": "VEC4",
      "max": [
        0.9784755706787109,
        0.2067129760980606,
        1,
        1
      ],
      "min": [
        -0.9784755706787109,
        -0.2067129760980606,
        -1,
        1
      ],
      "byteOffset": 0
    },
    {
      "bufferView": 8,
      "componentType": 5126,
      "count": 528,
      "type": "VEC2",
      "max": [
        0.59375,
        0.7250000238418579
      ],
      "min": [
        0.34375,
        0.3050000071525574
      ],
      "byteOffset": 0
    },
    {
      "bufferView": 9,
      "componentType": 5123,
      "count": 996,
      "type": "SCALAR",
      "max": [
        527
      ],
      "min": [
        0
      ],
      "byteOffset": 0
    },
    {
      "bufferView": 10,
      "componentType": 5126,
      "count": 528,
      "type": "VEC3",
      "max": [
        4.908997741723958e-14,
        0.30000001192092896,
        0.30000001192092896
      ],
      "min": [
        -0.30000001192092896,
        -0.30000001192092896,
        -0.30000001192092896
      ],
      "byteOffset": 0
    },
    {
      "bufferView": 11,
      "componentType": 5126,
      "count": 528,
      "type": "VEC3",
      "max": [
        1,
        0.9784755706787109,
        0.9784755706787109
      ],
      "min": [
        -1,
        -0.9784755706787109,
        -0.9784755706787109
      ],
      "byteOffset": 0
    },
    {
      "bufferView": 12,
      "componentType": 5126,
      "count": 528,
      "type": "VEC4",
      "max": [
        0.9784755706787109,
        0.2067129760980606,
        1,
        1
      ],
      "min": [
        -0.9784755706787109,
        -0.2067129760980606,
        -1,
        1
      ],
      "byteOffset": 0
    },
    {
      "bufferView": 13,
      "componentType": 5126,
      "count": 528,
      "type": "VEC2",
      "max": [
        0.59375,
        0.7250000238418579
      ],
      "min": [
        0.34375,
        0.3050000071525574
      ],
      "byteOffset": 0
    },
    {
      "bufferView": 14,
      "componentType": 5123,
      "count": 996,
      "type": "SCALAR",
      "max": [
        527
      ],
      "min": [
        0
      ],
      "byteOffset": 0
    },
    {
      "bufferView": 15,
      "componentType": 5126,
      "count": 528,
      "type": "VEC3",
      "max": [
        0.30000001192092896,
        0.30000001192092896,
        0.30000001192092896
      ],
      "min": [
        -2.7342868637661444e-13,
        -0.30000001192092896,
        -0.30000001192092896
      ],
      "byteOffset": 0
    },
    {
      "bufferView": 16,
      "componentType": 5126,
      "count": 528,
      "type": "VEC3",
      "max": [
        1,
        0.9784755706787109,
        0.9784755706787109
      ],
      "min": [
        -1,
        -0.9784755706787109,
        -0.9784755706787109
      ],
      "byteOffset": 0
    },
    {
      "bufferView": 17,
      "componentType": 5126,
      "count": 528,
      "type": "VEC4",
      "max": [
        0.9784755706787109,
        0.2067129760980606,
        1,
        1
      ],
      "min": [
        -0.9784755706787109,
        -0.2067129760980606,
        -1,
        1
      ],
      "byteOffset": 0
    },
    {
      "bufferView": 18,
      "componentType": 5126,
      "count": 528,
      "type": "VEC2",
      "max": [
        0.59375,
        0.7250000238418579
      ],
      "min": [
        0.34375,
        0.3050000071525574
      ],
      "byteOffset": 0
    },
    {
      "bufferView": 19,
      "componentType": 5123,
      "count": 996,
      "type": "SCALAR",
      "max": [
        527
      ],
      "min": [
        0
      ],
      "byteOffset": 0
    },
    {
      "bufferView": 20,
      "componentType": 5126,
      "count": 528,
      "type": "VEC3",
      "max": [
        4.908997741723958e-14,
        0.30000001192092896,
        0.30000001192092896
      ],
      "min": [
        -0.30000001192092896,
        -0.30000001192092896,
        -0.30000001192092896
      ],
      "byteOffset": 0
    },
    {
      "bufferView": 21,
      "componentType": 5126,
      "count": 528,
      "type": "VEC3",
      "max": [
        1,
        0.9784755706787109,
        0.9784755706787109
      ],
      "min": [
        -1,
        -0.9784755706787109,
        -0.9784755706787109
      ],
      "byteOffset": 0
    },
    {
      "bufferView": 22,
      "componentType": 5126,
      "count": 528,
      "type": "VEC4",
      "max": [
        0.9784755706787109,
        0.2067129760980606,
        1,
        1
      ],
      "min": [
        -0.9784755706787109,
        -0.2067129760980606,
        -1,
        1
      ],
      "byteOffset": 0
    },
    {
      "bufferView": 23,
      "componentType": 5126,
      "count": 528,
      "type": "VEC2",
      "max": [
        0.59375,
        0.7250000238418579
      ],
      "min": [
        0.34375,
        0.3050000071525574
      ],
      "byteOffset": 0
    },
    {
      "bufferView": 24,
      "componentType": 5123,
      "count": 996,
      "type": "SCALAR",
      "max": [
        527
      ],
      "min": [
        0
      ],
      "byteOffset": 0
    }
  ],
  "buffers": [
    {
      "name": "race",
      "byteLength": 172408,
      "uri": "data:application/octet-stream;base64,"
    }
  ],
  "bufferViews": [
    {
      "buffer": 0,
      "byteLength": 11736,
      "byteStride": 12,
      "target": 34962,
      "byteOffset": 0
    },
    {
      "buffer": 0,
      "byteOffset": 11736,
      "byteLength": 11736,
      "byteStride": 12,
      "target": 34962
    },
    {
      "buffer": 0,
      "byteOffset": 23472,
      "byteLength": 15648,
      "target": 34962,
      "byteStride": 16
    },
    {
      "buffer": 0,
      "byteOffset": 39120,
      "byteLength": 7824,
      "target": 34962,
      "byteStride": 8
    },
    {
      "buffer": 0,
      "byteOffset": 46944,
      "byteLength": 3744,
      "target": 34963
    },
    {
      "buffer": 0,
      "byteOffset": 50688,
      "byteLength": 6336,
      "byteStride": 12,
      "target": 34962
    },
    {
      "buffer": 0,
      "byteOffset": 57024,
      "byteLength": 6336,
      "byteStride": 12,
      "target": 34962
    },
    {
      "buffer": 0,
      "byteOffset": 63360,
      "byteLength": 8448,
      "target": 34962,
      "byteStride": 16
    },
    {
      "buffer": 0,
      "byteOffset": 71808,
      "byteLength": 4224,
      "target": 34962,
      "byteStride": 8
    },
    {
      "buffer": 0,
      "byteOffset": 76032,
      "byteLength": 1992,
      "target": 34963
    },
    {
      "buffer": 0,
      "byteOffset": 78024,
      "byteLength": 6336,
      "byteStride": 12,
      "target": 34962
    },
    {
      "buffer": 0,
      "byteOffset": 84360,
      "byteLength": 6336,
      "byteStride": 12,
      "target": 34962
    },
    {
      "buffer": 0,
      "byteOffset": 90696,
      "byteLength": 8448,
      "target": 34962,
      "byteStride": 16
    },
    {
      "buffer": 0,
      "byteOffset": 99144,
      "byteLength": 4224,
      "target": 34962,
      "byteStride": 8
    },
    {
      "buffer": 0,
      "byteOffset": 103368,
      "byteLength": 1992,
      "target": 34963
    },
    {
      "buffer": 0,
      "byteOffset": 105360,
      "byteLength": 6336,
      "byteStride": 12,
      "target": 34962
    },
    {
      "buffer": 0,
      "byteOffset": 111696,
      "byteLength": 6336,
      "byteStride": 12,
      "target": 34962
    },
    {
      "buffer": 0,
      "byteOffset": 118032,
      "byteLength": 8448,
      "target": 34962,
      "byteStride": 16
    },
    {
      "buffer": 0,
      "byteOffset": 126480,
      "byteLength": 4224,
      "target": 34962,
      "byteStride": 8
    },
    {
      "buffer": 0,
      "byteOffset": 130704,
      "byteLength": 1992,
      "target": 34963
    },
    {
      "buffer": 0,
      "byteOffset": 132696,
      "byteLength": 6336,
      "byteStride": 12,
      "target": 34962
    },
    {
      "buffer": 0,
      "byteOffset": 139032,
      "byteLength": 6336,
      "byteStride": 12,
      "target": 34962
    },
    {
      "buffer": 0,
      "byteOffset": 145368,
      "byteLength": 8448,
      "target": 34962,
      "byteStride": 16
    },
    {
      "buffer": 0,
      "byteOffset": 153816,
      "byteLength": 4224,
      "target": 34962,
      "byteStride": 8
    },
    {
      "buffer": 0,
      "byteOffset": 158040,
      "byteLength": 1992,
      "target": 34963
    },
    {
      "buffer": 0,
      "byteOffset": 160032,
      "byteLength": 12371
    }
  ],
  "images": [
    {
      "name": "colormap",
      "bufferView": 25,
      "mimeType": "image/png"
    }
  ],
  "materials": [
    {
      "pbrMetallicRoughness": {
        "baseColorTexture": {
          "index": 0,
          "extensions": {
            "KHR_texture_transform": {
              "texCoord": 0
            }
          },
          "texCoord": 0
        },
        "metallicFactor": 0,
        "baseColorFactor": [
          1,
          1,
          1,
          1
        ],
        "roughnessFactor": 1
      },
      "doubleSided": true,
      "name": "colormap",
      "emissiveFactor": [
        0,
        0,
        0
      ],
      "alphaMode": "OPAQUE"
    }
  ],
  "meshes": [
    {
      "primitives": [
        {
          "attributes": {
            "POSITION": 0,
            "NORMAL": 1,
            "TANGENT": 2,
            "TEXCOORD_0": 3
          },
          "indices": 4,
          "material": 0,
          "mode": 4
        }
      ],
      "name": "body"
    },
    {
      "primitives": [
        {
          "attributes": {
            "POSITION": 5,
            "NORMAL": 6,
            "TANGENT": 7,
            "TEXCOORD_0": 8
          },
          "indices": 9,
          "material": 0,
          "mode": 4
        }
      ],
      "name": "wheel-front-left"
    },
    {
      "primitives": [
        {
          "attributes": {
            "POSITION": 10,
            "NORMAL": 11,
            "TANGENT": 12,
            "TEXCOORD_0": 13
          },
          "indices": 14,
          "material": 0,
          "mode": 4
        }
      ],
      "name": "wheel-front-right"
    },
    {
      "primitives": [
        {
          "attributes": {
            "POSITION": 15,
            "NORMAL": 16,
            "TANGENT": 17,
            "TEXCOORD_0": 18
          },
          "indices": 19,
          "material": 0,
          "mode": 4
        }
      ],
      "name": "wheel-back-left"
    },
    {
      "primitives": [
        {
          "attributes": {
            "POSITION": 20,
            "NORMAL": 21,
            "TANGENT": 22,
            "TEXCOORD_0": 23
          },
          "indices": 24,
          "material": 0,
          "mode": 4
        }
      ],
      "name": "wheel-back-right"
    }
  ],
  "nodes": [
    {
      "mesh": 0,
      "translation": [
        -1.34997428e-13,
        0.1,
        -3.609557e-16
      ],
      "name": "body",
      "rotation": [
        0,
        0,
        0,
        1
      ],
      "scale": [
        1,
        1,
        1
      ]
    },
    {
      "mesh": 1,
      "translation": [
        0.35,
        0.3,
        0.6398862
      ],
      "name": "wheel-front-left",
      "rotation": [
        0,
        0,
        0,
        1
      ],
      "scale": [
        1,
        1,
        1
      ]
    },
    {
      "mesh": 2,
      "translation": [
        -0.35,
        0.3,
        0.6398862
      ],
      "name": "wheel-front-right",
      "rotation": [
        0,
        0,
        0,
        1
      ],
      "scale": [
        1,
        1,
        1
      ]
    },
    {
      "mesh": 3,
      "translation": [
        0.35,
        0.3,
        -0.8801137
      ],
      "name": "wheel-back-left",
      "rotation": [
        0,
        0,
        0,
        1
      ],
      "scale": [
        1,
        1,
        1
      ]
    },
    {
      "mesh": 4,
      "translation": [
        -0.35,
        0.3,
        -0.8801137
      ],
      "name": "wheel-back-right",
      "rotation": [
        0,
        0,
        0,
        1
      ],
      "scale": [
        1,
        1,
        1
      ]
    }
  ],
  "samplers": [
    {
      "minFilter": 9987,
      "wrapS": 10497,
      "wrapT": 10497
    }
  ],
  "textures": [
    {
      "sampler": 0,
      "source": 0,
      "name": "colormap"
    }
  ]
}
